<?xml version="1.0" standalone="no"?><!DOCTYPE svg PUBLIC "-//W3C//DTD SVG 1.1//EN" "http://www.w3.org/Graphics/SVG/1.1/DTD/svg11.dtd"><svg class="icon" height="512" viewBox="0 0 1024 1024" version="1.1" xmlns="http://www.w3.org/2000/svg"><path d="M519.573 517.68l-17.185 66.919c9.248 6.262 18.496 13.035 26.869 20.025l9.539 5.68 105.513-92.624h212.482c28.326 0 53.594-11.286 72.090-29.71s30.001-44.128 30.001-71.943v-211.681c0-28.326-11.505-53.521-30.001-71.871-18.496-18.422-43.837-30.074-72.090-30.074h-377.051c-28.18 0-53.449 11.651-71.798 30.074-18.35 18.35-29.71 43.618-29.71 71.871v12.087c15.655 4.005 31.021 10.049 45.511 17.914v-30.001c0-15.51 6.407-29.491 16.238-39.831 10.559-10.268 24.467-16.457 39.831-16.457h376.978c15.51 0 29.564 6.19 39.831 16.457 10.559 10.34 16.748 24.321 16.748 39.831v211.609c0 15.292-6.262 29.564-16.748 39.613-10.268 10.559-24.321 16.675-39.831 16.675h-229.449l-6.554 5.607-57.308 50.244 7.282-27.67 7.427-28.253h-50.827l-7.792 45.511zM784.775 272.065c20.316 0 36.263 16.384 36.263 36.555 0 19.952-15.947 36.263-36.263 36.263-20.025 0-36.263-16.311-36.263-36.263 0-20.171 16.238-36.555 36.263-36.555v0zM669.578 272.065c-20.316 0-36.846 16.384-36.846 36.555 0 19.952 16.53 36.263 36.846 36.263 19.879 0 36.263-16.311 36.263-36.263 0-20.171-16.311-36.555-36.263-36.555v0zM556.419 272.065c-19.879 0-36.117 16.384-36.117 36.555 0 19.952 16.238 36.263 36.117 36.263 20.171 0 36.482-16.311 36.482-36.263 0-20.171-16.311-36.555-36.482-36.555v0zM325.15 247.525c-82.066 0-148.621 66.337-148.621 148.694 0 81.993 66.556 148.402 148.621 148.402 81.92 0 148.767-66.41 148.767-148.402 0-82.357-66.847-148.694-148.767-148.694v0zM591.226 870.41c-1.53-147.602-73.036-241.1-163.111-280.421l-100.707 156.048-96.266-159.325c-92.989 36.773-167.699 131.509-165.952 283.698 185.904 70.706 360.521 65.609 526.035 0v0z" /></svg>