<svg id="Layer_1" enable-background="new 0 0 256 256" height="512" viewBox="0 0 256 256" width="512" xmlns="http://www.w3.org/2000/svg"><path d="m217.193 145.454-14.826-52.79h-28.657c-18.237 0-33.294-13.572-35.647-31.164h-1.348c-3.917 17.878-18.785 31.184-36.54 31.184h-42.471s-1.707.371-4.036-.14l-14.86 52.911c-1.291 4.597-1.954 9.5-1.954 14.447 0 21.593 12.364 39.098 27.615 39.098h62.395 2.275 62.395c15.252 0 27.615-17.505 27.615-39.098-.002-4.948-.665-9.85-1.956-14.448z" fill="#4671c6"/><path d="m191.532 201h-127.064c-16.33 0-29.615-18.437-29.615-41.098 0-5.153.683-10.195 2.029-14.988l14.86-52.911c.287-1.02 1.318-1.639 2.354-1.413 1.826.402 3.185.139 3.198.137.129-.026.277-.042.409-.042h42.471c16.544 0 30.766-12.177 34.586-29.613.201-.917 1.014-1.572 1.954-1.572h1.349c1.002 0 1.85.742 1.982 1.735 2.245 16.778 16.717 29.43 33.665 29.43h28.656c.896 0 1.683.596 1.925 1.459l14.826 52.79c1.347 4.793 2.029 9.835 2.029 14.988.001 22.661-13.284 41.098-29.614 41.098zm-136.414-106.224-14.386 51.22c-1.248 4.44-1.88 9.119-1.88 13.906 0 20.456 11.491 37.099 25.615 37.099h127.064c14.125 0 25.615-16.642 25.615-37.098 0-4.787-.632-9.466-1.88-13.906l-14.417-51.331h-27.139c-17.087 0-31.924-11.509-36.509-27.53-5.716 16.46-20.297 27.55-37.027 27.55h-42.29c-.449.074-1.445.193-2.766.09z" fill="#3762cc"/><path d="m165.754 188.237h-9.955c-.022-.001-.043-.004-.064-.004l-.004.004h-65.485c-17.3 0-31.324 14.024-31.324 31.324v15.713 4.462 8.264h138.155v-8.264-4.462-15.713c.001-17.299-14.023-31.324-31.323-31.324z" fill="#6bdddd"/><path d="m189.809 99.036c-.131 0-.258.017-.388.019v-5.751c0-33.616-27.499-60.868-61.421-60.868-33.922 0-61.421 27.251-61.421 60.868v5.751c-.13-.003-.257-.019-.388-.019-10.349 0-18.739 8.314-18.739 18.57s8.39 18.57 18.739 18.57c.68 0 1.349-.04 2.011-.11 6.338 26.928 30.696 46.993 59.799 46.993 29.103 0 53.46-20.065 59.799-46.993.661.07 1.331.11 2.011.11 10.349 0 18.739-8.314 18.739-18.57-.002-10.256-8.392-18.57-18.741-18.57z" fill="#f9cfcf"/><path d="m97.478 131.238c-4.089 0-7.415-3.326-7.415-7.414v-12.357c0-4.088 3.326-7.415 7.415-7.415 4.088 0 7.414 3.326 7.414 7.415v12.357c0 4.088-3.326 7.414-7.414 7.414z" fill="#3762cc"/><path d="m158.232 131.238c-4.089 0-7.415-3.326-7.415-7.414v-12.357c0-4.088 3.326-7.415 7.415-7.415 4.088 0 7.414 3.326 7.414 7.415v12.357c0 4.088-3.326 7.414-7.414 7.414z" fill="#3762cc"/><path d="m128 185.059c-29.057 0-54.038-19.194-61.335-46.889-.159.004-.317.006-.474.006-11.435 0-20.738-9.228-20.738-20.569 0-10.804 8.441-19.69 19.126-20.508v-3.793c0-34.665 28.451-62.867 63.421-62.867s63.421 28.202 63.421 62.867v3.793c10.685.818 19.126 9.704 19.126 20.508 0 11.342-9.303 20.569-20.738 20.569-.157 0-.315-.002-.474-.006-7.297 27.695-32.278 46.889-61.335 46.889zm-59.797-50.993c.918 0 1.731.631 1.945 1.542 6.299 26.761 30.088 45.451 57.852 45.451s51.553-18.69 57.852-45.451c.231-.98 1.159-1.637 2.157-1.531.629.066 1.219.099 1.801.099 9.229 0 16.738-7.433 16.738-16.569 0-9.134-7.505-16.566-16.732-16.57-.17.011-.263.017-.357.019-.553.027-1.056-.196-1.438-.572-.383-.376-.599-.89-.599-1.427v-5.751c0-32.459-26.656-58.867-59.421-58.867s-59.422 26.406-59.422 58.866v5.751c0 .537-.216 1.051-.599 1.427-.383.377-.897.597-1.438.572-.094-.001-.187-.007-.28-.014-.003 0-.006 0-.009 0-9.296 0-16.8 7.431-16.8 16.565 0 9.136 7.509 16.569 16.738 16.569.582 0 1.171-.032 1.801-.099.071-.007.141-.01.211-.01z" fill="#3762cc"/><path d="m139 153.954c-1.104 0-2-.896-2-2 0-1.245-.515-2.445-1.489-3.472-1.235-1.302-3.146-2.192-5.243-2.444-.132-.016-.26-.044-.382-.084h-3.786c-.118.04-.241.069-.369.084-2.097.251-4.008 1.142-5.243 2.444-.974 1.027-1.489 2.228-1.489 3.472 0 1.104-.896 2-2 2s-2-.896-2-2c0-2.256.919-4.467 2.587-6.225 1.771-1.867 4.269-3.126 7.082-3.58.251-.125.531-.195.825-.195h5.011c.316 0 .615.073.881.204 2.79.461 5.267 1.716 7.026 3.571 1.668 1.759 2.587 3.97 2.587 6.225.002 1.105-.894 2-1.998 2z" fill="#3762cc"/><path d="m128 183.059c-10.036 0-19.507-2.388-27.871-6.619v10.637c0 15.388 12.475 27.863 27.863 27.863s27.863-12.475 27.863-27.863v-10.629c-8.359 4.226-17.825 6.611-27.855 6.611z" fill="#f9cfcf"/><path d="m197.078 250h-138.156c-1.104 0-2-.896-2-2v-28.439c0-18.375 14.949-33.324 33.324-33.324h7.883v-9.797c0-.695.361-1.34.953-1.704.592-.365 1.33-.396 1.95-.081 8.399 4.249 17.472 6.403 26.968 6.403 9.49 0 18.558-2.152 26.953-6.396.619-.314 1.358-.284 1.95.081.592.364.952 1.009.952 1.704v9.79h7.898c18.375 0 33.324 14.949 33.324 33.324v28.439c.001 1.104-.895 2-1.999 2zm-136.156-4h134.155v-26.439c0-16.169-13.155-29.324-29.324-29.324h-9.928c-.544 0-1.065-.222-1.442-.615s-.578-.922-.556-1.466c.015-.358.028-.718.028-1.08v-7.466c-8.135 3.617-16.817 5.448-25.855 5.448-9.044 0-17.732-1.833-25.871-5.455v7.473c0 .362.013.721.028 1.08.022.544-.179 1.074-.556 1.466-.377.393-.898.615-1.442.615h-9.913c-16.169 0-29.324 13.155-29.324 29.324z" fill="#3762cc"/><path d="m41.634 75.79c3.522 19.649 16.069 16.895 16.069 16.895h42.471c20.743 0 37.558-18.155 37.558-40.551v-35.97c0-4.509-3.385-8.164-7.562-8.164h-16.488c-26.731 0-49.468 18.462-57.872 44.221-.39 1.194-.704 2.408-1.005 3.631-1.016 4.12-4.512 15.962-11.417 17.333-1.167.232-1.979 1.348-1.754 2.605z" fill="#4671c6"/><path d="m145.295 8c-4.176 0-7.562 3.385-7.562 7.562v41.126c0 19.87 16.108 35.977 35.977 35.977h30.56c1.185 0 2.146-.961 2.146-2.146v-21.397c.001-33.757-27.364-61.122-61.121-61.122z" fill="#4671c6"/><path d="m41.634 75.79c3.522 19.649 16.069 16.895 16.069 16.895h42.471c20.743 0 37.558-18.155 37.558-40.551v-35.97c0-4.509-3.385-8.164-7.562-8.164h-16.488c-26.731 0-49.468 18.462-57.872 44.221-.39 1.194-.704 2.408-1.005 3.631-1.016 4.12-4.512 15.962-11.417 17.333-1.167.232-1.979 1.348-1.754 2.605z" fill="#4671c6"/><path d="m145.295 8c-4.176 0-7.562 3.385-7.562 7.562v41.126c0 19.87 16.108 35.977 35.977 35.977h30.56c1.185 0 2.146-.961 2.146-2.146v-21.397c.001-33.757-27.364-61.122-61.121-61.122z" fill="#4671c6"/><path d="m56.137 94.812c-1.839 0-4.712-.39-7.62-2.331-4.464-2.98-7.442-8.478-8.852-16.338-.413-2.306 1.051-4.466 3.333-4.919 4.618-.917 8.124-8.789 9.864-15.85.298-1.21.632-2.504 1.046-3.773 8.9-27.276 32.922-45.601 59.776-45.601h16.488c5.272 0 9.562 4.56 9.562 10.164v35.969c0 23.462-17.746 42.551-39.559 42.551h-42.296c-.323.052-.932.128-1.742.128zm-12.534-19.375c1.21 6.749 3.61 11.364 7.135 13.718 3.302 2.205 6.505 1.583 6.537 1.576.141-.031.285-.046.429-.046h42.471c19.607 0 35.559-17.294 35.559-38.551v-35.97c0-3.399-2.495-6.164-5.562-6.164h-16.488c-25.118 0-47.611 17.216-55.973 42.841-.354 1.083-.641 2.178-.965 3.49-1.266 5.134-5.063 17.246-12.969 18.816-.023.004-.217.05-.174.29z" fill="#3762cc"/><path d="m204.271 94.664h-30.561c-20.94 0-37.977-17.037-37.977-37.977v-41.125c0-5.272 4.289-9.562 9.562-9.562 34.806 0 63.122 28.316 63.122 63.122v21.396c0 2.286-1.86 4.146-4.146 4.146zm-58.976-84.664c-3.066 0-5.562 2.495-5.562 5.562v41.125c0 18.735 15.242 33.977 33.977 33.977h30.561c.081 0 .146-.065.146-.146v-21.396c0-32.6-26.522-59.122-59.122-59.122z" fill="#3762cc"/><circle cx="86.644" cy="140.81" fill="#f9a7a7" r="3.301"/><path d="m85.769 141.412c-.717 0-1.301-.583-1.301-1.301s.583-1.301 1.301-1.301 1.301.584 1.301 1.301-.584 1.301-1.301 1.301z" fill="#e0ebfc"/><g fill="#f9a7a7"><circle cx="96.518" cy="145.617" r="3.796"/><circle cx="89.665" cy="152.661" r="3.301"/><circle cx="173.066" cy="143.991" r="4.176"/><circle cx="143.409" cy="93.088" r="4.176"/><circle cx="166.452" cy="155.195" r="3.631"/><circle cx="135.107" cy="83.757" r="4.176"/></g><path d="m173.71 143.934c-.789 0-1.431-.642-1.431-1.431s.642-1.431 1.431-1.431 1.431.642 1.431 1.431-.642 1.431-1.431 1.431z" fill="#e0ebfc"/><path d="m135.107 84.088c-.789 0-1.431-.642-1.431-1.431s.642-1.431 1.431-1.431 1.431.642 1.431 1.431-.642 1.431-1.431 1.431z" fill="#e0ebfc"/><path d="m144.319 95.245c-.908 0-1.647-.739-1.647-1.647s.739-1.647 1.647-1.647 1.647.739 1.647 1.647c0 .909-.738 1.647-1.647 1.647z" fill="#e0ebfc"/></svg>