<svg id="Layer_1" enable-background="new 0 0 256 256" height="512" viewBox="0 0 256 256" width="512" xmlns="http://www.w3.org/2000/svg"><path d="m145.341 185.109h-9.438c-.02-.001-.04-.004-.061-.004l-.003.004h-62.084c-16.402 0-29.698 13.296-29.698 29.698v14.897 4.23 7.835h130.982v-7.835-4.23-14.897c0-16.402-13.296-29.698-29.698-29.698z" fill="#6bdddd"/><path d="m168.147 100.54c-.124 0-.244.016-.368.018v-5.452c0-31.871-26.071-57.707-58.232-57.707-32.16 0-58.232 25.836-58.232 57.707v5.452c-.124-.003-.244-.018-.368-.018-9.812 0-17.766 7.882-17.766 17.606 0 9.723 7.954 17.606 17.766 17.606.644 0 1.279-.038 1.906-.104 6.009 25.529 29.102 44.553 56.693 44.553 27.592 0 50.684-19.023 56.693-44.553.627.066 1.262.104 1.906.104 9.812 0 17.766-7.882 17.766-17.606.002-9.723-7.952-17.606-17.764-17.606z" fill="#f9cfcf"/><path d="m109.548 182.2c-27.567 0-51.271-18.194-58.229-44.453-11.069.23-20.136-8.669-20.136-19.602 0-10.266 7.996-18.714 18.134-19.539v-3.5c0-32.923 27.02-59.707 60.231-59.707s60.231 26.784 60.231 59.707v3.5c10.139.825 18.134 9.273 18.134 19.539 0 10.811-8.867 19.605-19.766 19.605-.123 0-.247-.001-.37-.004-6.958 26.26-30.663 44.454-58.229 44.454zm-56.692-48.554c.918 0 1.731.631 1.945 1.542 5.96 25.324 28.473 43.012 54.747 43.012s48.786-17.688 54.746-43.012c.231-.98 1.151-1.637 2.158-1.531.593.063 1.147.094 1.695.094 8.693 0 15.766-7.001 15.766-15.605 0-8.602-7.066-15.6-15.755-15.605-.158.011-.252.017-.348.019-.545-.007-1.052-.198-1.435-.574-.382-.376-.597-.89-.597-1.426v-5.452c0-30.717-25.226-55.707-56.231-55.707-31.006 0-56.231 24.99-56.231 55.707v5.452c0 .536-.215 1.05-.597 1.426s-.903.566-1.435.574c-.096-.002-.19-.008-.285-.015-.002 0-.006 0-.008 0-8.742 0-15.81 6.999-15.81 15.602 0 8.604 7.072 15.605 15.766 15.605.548 0 1.103-.03 1.696-.094.072-.008.143-.012.213-.012z" fill="#3762cc"/><path d="m109.548 180.2c-9.515 0-18.495-2.264-26.424-6.275v10.085c0 14.589 11.827 26.416 26.416 26.416s26.416-11.827 26.416-26.416v-10.077c-7.925 4.006-16.899 6.267-26.408 6.267z" fill="#f9cfcf"/><path d="m175.039 243.769h-130.982c-1.104 0-2-.896-2-2v-26.962c0-17.478 14.219-31.697 31.697-31.697h7.37v-9.185c0-.694.361-1.34.953-1.704.592-.363 1.33-.396 1.95-.08 7.949 4.021 16.536 6.06 25.521 6.06 8.979 0 17.561-2.036 25.507-6.053.619-.313 1.357-.283 1.95.082.592.363.952 1.009.952 1.703v9.177h7.384c17.479 0 31.698 14.22 31.698 31.697v26.962c0 1.104-.895 2-2 2zm-128.982-4h126.982v-24.962c0-15.272-12.426-27.697-27.698-27.697h-9.412c-.545 0-1.066-.223-1.444-.616-.377-.394-.577-.925-.554-1.47.015-.336.026-.674.026-1.015v-6.918c-7.685 3.392-15.88 5.109-24.409 5.109-8.534 0-16.735-1.72-24.423-5.116v6.925c0 .342.012.68.026 1.018.023.545-.178 1.074-.555 1.468-.377.393-.898.615-1.443.615h-9.398c-15.272 0-27.697 12.425-27.697 27.697v24.962z" fill="#3762cc"/><path d="m93.278 91.181h-58.144v-20.189c0-31.348 25.413-56.761 56.761-56.761h16.327c8.253 0 14.944 6.691 14.944 14.944v32.118c0 16.507-13.381 29.888-29.888 29.888z" fill="#4671c6"/><path d="m183.036 89.182h-33.837c-14.378 0-26.033-11.655-26.033-26.033v-35.26c0-7.543 6.115-13.657 13.657-13.657 25.523 0 46.213 20.69 46.213 46.213z" fill="#4671c6"/><path d="m41.255 91.181v12.222c2.789-1.805 6.114-2.863 9.693-2.863.124 0 .244.016.368.018v-5.452c0-1.32.053-2.628.141-3.926h-10.202z" fill="#4671c6"/><path d="m167.466 89.182c.201 1.949.314 3.923.314 5.925v5.452c.124-.002.244-.018.368-.018 3.573 0 6.893 1.055 9.679 2.854v-14.213z" fill="#4671c6"/><path d="m72.758 128.453c-.708 0-1.393-.376-1.757-1.04-.53-.97-.174-2.185.795-2.715l14.138-7.732c.027-.015.051-.027.05-.086l-14.163-7.533c-.977-.516-1.351-1.726-.835-2.702s1.724-1.35 2.702-.835l14.111 7.448c1.336.705 2.173 2.081 2.185 3.592.011 1.511-.805 2.9-2.131 3.626l-14.139 7.732c-.303.166-.632.245-.956.245z" fill="#3762cc"/><path d="m146.153 128.453c-.324 0-.653-.079-.958-.245l-14.139-7.732c-1.326-.726-2.142-2.115-2.131-3.626.012-1.511.849-2.887 2.185-3.592l14.111-7.448c.979-.516 2.188-.141 2.702.835.516.977.142 2.187-.835 2.702l-14.111 7.448c-.053.144-.028.156-.001.171l14.139 7.732c.969.53 1.325 1.745.795 2.715-.363.664-1.049 1.04-1.757 1.04z" fill="#3762cc"/><path d="m124.539 154.072h-29.983c-1.681 0-3.045-1.363-3.045-3.045 0-7.656 6.207-13.863 13.863-13.863h8.347c7.656 0 13.863 6.207 13.863 13.863 0 1.682-1.363 3.045-3.045 3.045z" fill="#f9a7a7"/><g fill="#3762cc"><path d="m93.278 93.181h-58.144c-1.104 0-2-.896-2-2v-20.189c0-32.4 26.36-58.761 58.761-58.761h16.328c9.343 0 16.943 7.601 16.943 16.943v32.118c0 17.584-14.305 31.889-31.888 31.889zm-56.144-4h56.145c15.377 0 27.887-12.511 27.887-27.888v-32.118c0-7.137-5.806-12.943-12.943-12.943h-16.328c-30.195 0-54.761 24.565-54.761 54.761z"/><path d="m183.036 91.182h-33.837c-15.458 0-28.034-12.575-28.034-28.033v-35.26c0-8.634 7.024-15.657 15.658-15.657 26.585 0 48.213 21.628 48.213 48.213v28.737c0 1.104-.895 2-2 2zm-46.213-74.951c-6.428 0-11.658 5.229-11.658 11.657v35.26c0 13.252 10.782 24.033 24.034 24.033h31.837v-26.737c0-24.379-19.834-44.213-44.213-44.213z"/><path d="m41.255 105.403c-.328 0-.657-.081-.956-.243-.644-.35-1.044-1.024-1.044-1.757v-12.222c0-1.104.896-2 2-2h10.203c.554 0 1.083.229 1.461.635.378.404.572.948.534 1.501-.092 1.349-.137 2.589-.137 3.79v5.452c0 .536-.215 1.05-.597 1.426s-.903.566-1.435.574c-.096-.002-.19-.008-.285-.015-.007 0-.015 0-.022 0-3.104 0-6.072.879-8.637 2.538-.328.214-.706.321-1.085.321zm2-12.222v6.91c1.926-.811 3.969-1.313 6.062-1.484v-3.5c0-.631.011-1.27.034-1.926z"/><path d="m177.826 105.395c-.378 0-.756-.107-1.085-.319-2.568-1.658-5.54-2.535-8.594-2.535-.146.011-.24.017-.337.019-.545-.007-1.052-.198-1.435-.574-.382-.376-.597-.89-.597-1.426v-5.452c0-1.849-.102-3.772-.303-5.72-.059-.563.125-1.124.504-1.545.38-.42.919-.66 1.485-.66h10.36c1.104 0 2 .896 2 2v14.213c0 .732-.4 1.406-1.043 1.757-.297.16-.627.242-.955.242zm-8.047-6.789c2.087.172 4.125.672 6.047 1.479v-8.904h-6.183c.091 1.33.136 2.644.136 3.925z"/><path d="m124.54 156.072h-29.984c-2.782 0-5.044-2.263-5.044-5.045 0-8.746 7.116-15.862 15.863-15.862h8.347c8.747 0 15.863 7.116 15.863 15.862-.001 2.783-2.264 5.045-5.045 5.045zm-19.165-16.907c-6.541 0-11.863 5.321-11.863 11.862 0 .576.469 1.045 1.044 1.045h29.983c.576 0 1.044-.469 1.044-1.045 0-6.541-5.322-11.862-11.863-11.862z"/></g><path d="m159.026 201.013c-4.506-1.366-9.301-.173-12.87 2.748-3.569-2.921-8.364-4.113-12.87-2.748-7.752 2.349-11.735 10.97-8.87 18.84 1.04 2.857 2.834 5.209 5.055 6.895l.005.004 14.85 11.452s.287.311.747.565c.082.051.167.092.253.125.592.256 1.386.349 2.208-.275v.002l.053-.043c.017-.014.035-.028.052-.042l1.872-1.508 13.325-10.276.005-.004c2.22-1.686 4.015-4.038 5.055-6.895 2.865-7.87-1.118-16.491-8.87-18.84z" fill="#f9a7a7"/><path d="m155.714 234.245c-.499 0-.999-.186-1.387-.559l-7.172-6.899c-.278-.269-.474-.611-.562-.987l-2.387-10.246c-.25-1.076.419-2.151 1.494-2.402 1.078-.249 2.151.419 2.402 1.494l2.252 9.67 6.745 6.488c.796.766.82 2.032.055 2.828-.391.408-.916.613-1.44.613z" fill="#3762cc"/><path d="m147.583 223.222c-.125 0-.253-.012-.381-.036l-7.536-1.452c-1.084-.209-1.794-1.258-1.585-2.342s1.253-1.788 2.343-1.586l7.536 1.452c1.084.209 1.794 1.258 1.585 2.343-.185.956-1.023 1.621-1.962 1.621z" fill="#3762cc"/><path d="m146.217 241.088c-.563 0-1.132-.118-1.686-.357-.115-.041-.296-.129-.471-.234-.496-.28-.858-.593-1.06-.786l-14.748-11.373c-2.602-1.976-4.581-4.674-5.718-7.8-1.605-4.41-1.348-9.297.707-13.405 1.963-3.926 5.324-6.779 9.463-8.033 4.506-1.363 9.424-.547 13.45 2.171 4.027-2.72 8.947-3.536 13.45-2.171 4.139 1.254 7.5 4.107 9.463 8.033 2.055 4.108 2.313 8.995.706 13.406-1.137 3.125-3.116 5.823-5.725 7.803l-13.317 10.271-1.839 1.482c-.009.007-.069.056-.079.063-.023.019-.048.036-.072.054-.762.58-1.635.876-2.524.876zm-.133-4.043c.104.041.132.046.14.046.001-.002.039-.019.101-.064.02-.016.04-.03.061-.045l-.001-.002 1.872-1.509 13.358-10.302c2.013-1.528 3.528-3.598 4.401-5.999 1.232-3.384 1.04-7.119-.524-10.249-1.467-2.933-3.97-5.062-7.046-5.994-3.709-1.126-7.829-.232-11.023 2.382-.736.604-1.797.604-2.533 0-3.194-2.614-7.317-3.507-11.023-2.382-3.076.933-5.579 3.061-7.045 5.994-1.565 3.13-1.757 6.865-.526 10.249.871 2.393 2.379 4.456 4.362 5.968.014.011.027.021.04.03l14.851 11.453c.089.069.173.146.249.229.005.003.112.098.243.17.013.008.027.016.043.025zm-.058-.024c.01.004.019.008.027.012-.01-.005-.02-.009-.027-.012z" fill="#3762cc"/><path d="m171.056 202.992c-.382-.275-.709-.638-.948-1.08-.84-1.558-.259-3.501 1.3-4.341l15.904-8.578-4.079-2.933c-.896-.644-1.398-1.704-1.327-2.806s.703-2.089 1.674-2.614l20.437-11.043c1.558-.841 3.5-.263 4.343 1.296.841 1.557.261 3.501-1.295 4.342l-15.936 8.61 4.083 2.936c.897.645 1.398 1.705 1.326 2.807-.071 1.102-.704 2.09-1.676 2.614l-20.413 11.009c-1.115.602-2.43.474-3.393-.219z" fill="#ffea92"/><path d="m223.973 206.98c.209.421.328.896.332 1.398.013 1.77-1.411 3.214-3.181 3.227l-18.07.133 2.231 4.501c.49.989.437 2.16-.141 3.101-.579.94-1.6 1.517-2.703 1.526l-23.229.188c-1.77.014-3.216-1.406-3.23-3.179-.014-1.769 1.408-3.216 3.178-3.23l18.113-.146-2.233-4.506c-.49-.99-.437-2.162.143-3.102.578-.941 1.601-1.517 2.705-1.524l23.192-.17c1.264-.009 2.366.72 2.893 1.783z" fill="#ffea92"/><path d="m159.118 195.653c-.464.076-.952.05-1.433-.093-1.696-.508-2.658-2.293-2.15-3.988l5.18-17.312-4.958.81c-1.089.178-2.193-.217-2.923-1.046-.728-.829-.98-1.975-.665-3.032l6.643-22.26c.507-1.696 2.289-2.661 3.987-2.154 1.695.506 2.66 2.291 2.154 3.986l-5.18 17.357 4.963-.811c1.09-.178 2.195.217 2.923 1.047.729.829.98 1.976.663 3.034l-6.65 22.219c-.363 1.213-1.383 2.052-2.554 2.243z" fill="#ffea92"/></svg>